<?xml version="1.0" standalone="no"?>
<!DOCTYPE svg PUBLIC "-//W3C//DTD SVG 20010904//EN"
 "http://www.w3.org/TR/2001/REC-SVG-20010904/DTD/svg10.dtd">
<svg version="1.0" xmlns="http://www.w3.org/2000/svg"
 width="1024.000000pt" height="829.000000pt" viewBox="0 0 1024.000000 829.000000"
 preserveAspectRatio="xMidYMid meet">

<g transform="translate(0.000000,829.000000) scale(0.100000,-0.100000)"
fill="#000000" stroke="none">
<path d="M3365 6393 c-231 -16 -484 -80 -649 -164 -110 -56 -157 -90 -240
-174 -79 -80 -144 -195 -171 -300 -77 -303 49 -673 368 -1077 38 -49 70 -88
72 -88 2 0 -24 44 -58 98 -71 113 -145 273 -178 387 -21 70 -24 100 -24 240 1
150 2 164 28 230 114 288 389 462 837 530 160 24 539 22 745 -5 1025 -132
2140 -655 2874 -1348 341 -321 572 -677 637 -979 21 -102 22 -259 0 -341 -86
-322 -364 -515 -861 -596 l-90 -15 120 5 c584 25 967 204 1117 521 148 314 40
732 -305 1173 -466 597 -1269 1148 -2227 1530 -680 271 -1430 411 -1995 373z"/>
<path d="M3439 5895 c-174 -21 -354 -74 -465 -135 -176 -99 -295 -259 -328
-443 l-7 -37 48 51 c91 97 271 199 438 247 639 186 1617 25 2485 -410 260
-130 392 -209 600 -357 440 -314 745 -669 853 -992 38 -113 51 -200 44 -308
-11 -171 -58 -273 -187 -401 -69 -69 -105 -95 -185 -137 -101 -52 -236 -101
-355 -127 l-65 -15 60 5 c208 19 433 75 583 146 433 204 556 597 330 1053
-213 430 -663 842 -1343 1230 -169 96 -529 260 -760 345 -630 231 -1295 340
-1746 285z"/>
<path d="M3360 5290 c-277 -4 -325 -7 -325 -20 0 -9 23 -22 59 -35 97 -33 100
-40 108 -278 8 -279 8 -895 -1 -1237 -10 -346 -19 -380 -99 -395 -59 -10 -72
-15 -72 -30 0 -7 10 -15 23 -19 40 -11 645 -7 652 4 11 18 -14 38 -58 45 -122
20 -126 54 -127 1091 0 660 1 723 17 735 11 10 49 14 132 14 110 0 119 -2 182
-32 161 -79 249 -243 249 -463 0 -88 -27 -205 -64 -278 -33 -66 -113 -136
-170 -151 -25 -6 -92 -11 -150 -11 -98 0 -106 -2 -106 -19 0 -37 113 -110 171
-111 32 0 49 -18 148 -160 103 -148 248 -348 301 -414 50 -64 139 -150 184
-179 95 -62 126 -70 306 -76 l165 -6 3 -150 c3 -181 -13 -516 -28 -568 -14
-47 -43 -74 -89 -82 -52 -9 -69 -21 -53 -37 19 -19 655 -19 673 0 19 18 2 30
-55 41 -57 10 -93 41 -106 91 -14 52 -24 873 -11 869 6 -2 57 -61 114 -130 57
-69 173 -206 259 -305 386 -445 489 -536 644 -569 77 -16 459 -21 483 -6 26
16 3 39 -51 50 -81 18 -204 82 -294 155 -132 106 -372 354 -744 766 -136 151
-160 179 -160 192 0 17 616 627 681 675 82 61 157 99 229 119 75 20 89 29 72
47 -16 15 -537 20 -566 5 -17 -9 -17 -11 8 -37 68 -71 29 -125 -481 -651 -72
-74 -141 -147 -153 -162 -12 -16 -28 -28 -37 -28 -13 0 -15 41 -10 363 4 229
10 374 17 393 17 43 49 73 86 80 44 8 62 29 37 42 -22 11 -625 13 -644 2 -20
-13 5 -37 49 -45 56 -10 90 -35 108 -79 15 -36 18 -98 22 -503 3 -372 2 -463
-8 -463 -18 0 -96 46 -150 88 -52 41 -97 88 -214 222 -69 79 -126 150 -319
390 -69 85 -127 164 -127 170 0 4 30 34 66 65 124 109 224 255 259 379 13 43
16 87 14 170 -4 106 -6 116 -42 189 -89 180 -228 256 -509 276 -81 6 -153 10
-160 9 -7 -2 -159 -5 -338 -8z"/>
</g>
</svg>
